Coordinates
version=1
nRows=4
nColumns=63
inDegrees=yes

Units are S.I. units (second, meters, Newtons, ...)
If the header above contains a line with 'inDegrees', this indicates whether rotational values are in degrees (yes) or radians (no).

endheader
time	pelvis_tilt	pelvis_list	pelvis_rotation	pelvis_tx	pelvis_ty	pelvis_tz	hip_flexion_r	hip_adduction_r	hip_rotation_r	knee_angle_r	knee_angle_r_beta	ankle_angle_r	subtalar_angle_r	mtp_angle_r	hip_flexion_l	hip_adduction_l	hip_rotation_l	knee_angle_l	knee_angle_l_beta	ankle_angle_l	subtalar_angle_l	mtp_angle_l	L5_S1_Flex_Ext	L5_S1_Lat_Bending	L5_S1_axial_rotation	L4_L5_Flex_Ext	L4_L5_Lat_Bending	L4_L5_axial_rotation	L3_L4_Flex_Ext	L3_L4_Lat_Bending	L3_L4_axial_rotation	L2_L3_Flex_Ext	L2_L3_Lat_Bending	L2_L3_axial_rotation	L1_L2_Flex_Ext	L1_L2_Lat_Bending	L1_L2_axial_rotation	L1_T12_Flex_Ext	L1_T12_Lat_Bending	L1_T12_axial_rotation	Abs_r3	Abs_r2	Abs_r1	Abs_t1	Abs_t2	neck_flexion	neck_bending	neck_rotation	arm_flex_r	arm_add_r	arm_rot_r	elbow_flex_r	pro_sup_r	wrist_flex_r	wrist_dev_r	arm_flex_l	arm_add_l	arm_rot_l	elbow_flex_l	pro_sup_l	wrist_flex_l	wrist_dev_l
      2.13559322	      2.45701720	     14.38425017	     74.55738817	      0.16703899	      0.81642267	      0.60178492	     -3.63339405	     -2.94855495	      3.00293191	     21.70461159	      0.37881694	     39.37445835	      0.39279231	      0.00000000	    -12.99028565	      2.42865282	     17.38776965	      5.23418322	      0.09135373	     35.23858337	    -18.13360038	      0.00000000	      0.16393435	     -0.19950127	     -0.70928545	      0.30444248	     -0.26533669	     -0.75361579	      0.26932774	     -0.48506738	     -0.75361579	      0.18736057	     -0.48506738	     -0.62062477	      0.15222944	     -0.40682299	     -0.57629443	      0.09367209	     -0.30902746	     -0.53196409	      1.17096667	     -2.25679824	     -3.94483289	      0.00000000	      0.00000000	      5.49960909	      4.10157648	     -0.90804435	     22.81987028	    -41.12604135	     32.99135696	     89.74549105	     69.16823346	      9.25574175	     -5.39997136	     25.06047961	    -57.30107994	     36.74299552	     90.18470157	     75.00999137	     12.21360439	    -14.67560177
      2.15254237	      2.55868066	     14.79450577	     73.69413757	      0.16662051	      0.81679211	      0.60180790	     -4.05361873	     -3.09217676	      3.92776514	     21.64138534	      0.37771343	     38.83411973	     -0.45227824	      0.00000000	    -13.41130516	      2.74179516	     16.78210285	      5.35417717	      0.09344802	     35.38015464	    -18.03026563	      0.00000000	      0.14769080	     -0.18184931	     -0.77027525	      0.27427658	     -0.24185958	     -0.81841745	      0.24264121	     -0.44214840	     -0.81841745	      0.16879581	     -0.44214840	     -0.67399084	      0.13714568	     -0.37082711	     -0.62584864	      0.08439052	     -0.28168458	     -0.57770644	      1.05494061	     -2.05711572	     -4.28403986	      0.00000000	      0.00000000	      6.11396863	      3.35545742	      0.91591785	     26.65634086	    -39.17892481	     35.09051409	     86.34437293	     66.47761150	      2.64018794	     -4.46358728	     24.97544924	    -56.75034194	     33.96388826	     88.25946568	     71.79127837	      7.58607801	    -13.72566938
      2.16949153	      2.65674833	     15.12938580	     73.09744148	      0.16598978	      0.81721438	      0.60195677	     -4.41000010	     -3.28128292	      4.08121008	     21.58283028	      0.37669145	     38.31296354	     -0.64318344	      0.00000000	    -13.74097918	      2.96218512	     16.38513191	      5.41820406	      0.09456550	     35.30697769	    -17.96829628	      0.00000000	      0.13954379	     -0.16932942	     -0.81815907	      0.25914677	     -0.22520813	     -0.86929401	      0.22925649	     -0.41170755	     -0.86929401	      0.15948459	     -0.41170755	     -0.71588918	      0.12958036	     -0.34529655	     -0.66475424	      0.07973532	     -0.26229127	     -0.61361930	      0.99674731	     -1.91548826	     -4.55035528	      0.00000000	      0.00000000	      6.91656017	      2.86955415	      2.06932744	     29.94198451	    -36.65586707	     35.53623097	     81.88156572	     66.67874802	      0.12331758	     -3.07287022	     25.66233625	    -55.72761942	     31.54151736	     85.99278255	     69.29545719	      5.29321083	    -11.93257033
      2.18644068	      2.72758232	     15.45620408	     72.51227659	      0.16528864	      0.81774139	      0.60212175	     -4.78865865	     -3.51405630	      4.13479325	     21.39917016	      0.37348598	     37.83732461	     -0.66216626	      0.00000000	    -14.01569879	      3.22511750	     15.91028990	      5.53743294	      0.09664644	     35.24904464	    -17.98465015	      0.00000000	      0.12410485	     -0.15914932	     -0.81405264	      0.23047511	     -0.21166860	     -0.86493094	      0.20389185	     -0.38695567	     -0.86493094	      0.14183943	     -0.38695567	     -0.71229606	      0.11524376	     -0.32453730	     -0.66141777	      0.07091351	     -0.24652230	     -0.61053948	      0.88646850	     -1.80032899	     -4.52751659	      0.00000000	      0.00000000	      7.85481999	      2.13179238	      2.68588568	     32.75015939	    -34.24828331	     35.48830750	     76.93579721	     67.15465450	     -0.61948908	     -1.99750116	     26.78565301	    -54.48143982	     29.73513839	     83.41187841	     67.49649000	      4.39254043	    -10.06290162
